<mxfile host="app.diagrams.net" modified="2023-03-06T08:46:53.576Z" agent="5.0 (X11; Linux x86_64) AppleWebKit/537.36 (KHTML, like Gecko) Chrome/109.0.0.0 Safari/537.36" etag="8b_kEjvp6pP26OlpLtQb" version="21.0.2" type="github">
  <diagram name="Page-1" id="wBLB50ndiuzwH3vPlfpo">
    <mxGraphModel dx="3585" dy="2015" grid="1" gridSize="10" guides="1" tooltips="1" connect="1" arrows="1" fold="1" page="1" pageScale="1" pageWidth="827" pageHeight="1169" math="0" shadow="0">
      <root>
        <mxCell id="0" />
        <mxCell id="1" parent="0" />
        <mxCell id="8-loA80qppVBk1mBf-55-1" value="Invoice (Interface)" style="swimlane;whiteSpace=wrap;html=1;" vertex="1" parent="1">
          <mxGeometry x="321" y="450" width="200" height="250" as="geometry" />
        </mxCell>
        <mxCell id="8-loA80qppVBk1mBf-55-15" value="EniInvoice" style="text;strokeColor=none;align=center;fillColor=none;html=1;verticalAlign=middle;whiteSpace=wrap;rounded=0;" vertex="1" parent="8-loA80qppVBk1mBf-55-1">
          <mxGeometry y="170" width="200" height="40" as="geometry" />
        </mxCell>
        <mxCell id="8-loA80qppVBk1mBf-55-14" value="EcoreInvoice" style="text;strokeColor=none;align=center;fillColor=none;html=1;verticalAlign=middle;whiteSpace=wrap;rounded=0;" vertex="1" parent="8-loA80qppVBk1mBf-55-1">
          <mxGeometry y="210" width="200" height="40" as="geometry" />
        </mxCell>
        <mxCell id="8-loA80qppVBk1mBf-55-13" value="AlphabetInvoice" style="text;strokeColor=none;align=center;fillColor=none;html=1;verticalAlign=middle;whiteSpace=wrap;rounded=0;" vertex="1" parent="8-loA80qppVBk1mBf-55-1">
          <mxGeometry y="130" width="200" height="40" as="geometry" />
        </mxCell>
        <mxCell id="8-loA80qppVBk1mBf-55-12" value="ArvalInvoice" style="text;strokeColor=none;align=center;fillColor=none;html=1;verticalAlign=middle;whiteSpace=wrap;rounded=0;" vertex="1" parent="8-loA80qppVBk1mBf-55-1">
          <mxGeometry y="90" width="200" height="40" as="geometry" />
        </mxCell>
        <mxCell id="8-loA80qppVBk1mBf-55-58" value="send()" style="text;strokeColor=none;align=center;fillColor=none;html=1;verticalAlign=middle;whiteSpace=wrap;rounded=0;" vertex="1" parent="8-loA80qppVBk1mBf-55-1">
          <mxGeometry y="40" width="200" height="30" as="geometry" />
        </mxCell>
        <mxCell id="8-loA80qppVBk1mBf-55-2" value="Export (Interface)" style="swimlane;whiteSpace=wrap;html=1;startSize=23;" vertex="1" parent="1">
          <mxGeometry x="521" y="450" width="200" height="250" as="geometry" />
        </mxCell>
        <mxCell id="8-loA80qppVBk1mBf-55-16" value="EniInvoice" style="text;strokeColor=none;align=center;fillColor=none;html=1;verticalAlign=middle;whiteSpace=wrap;rounded=0;" vertex="1" parent="8-loA80qppVBk1mBf-55-2">
          <mxGeometry y="210" width="200" height="40" as="geometry" />
        </mxCell>
        <mxCell id="8-loA80qppVBk1mBf-55-17" value="ArvalExport" style="text;strokeColor=none;align=center;fillColor=none;html=1;verticalAlign=middle;whiteSpace=wrap;rounded=0;" vertex="1" parent="8-loA80qppVBk1mBf-55-2">
          <mxGeometry y="90" width="200" height="40" as="geometry" />
        </mxCell>
        <mxCell id="8-loA80qppVBk1mBf-55-18" value="AlphabetExport" style="text;strokeColor=none;align=center;fillColor=none;html=1;verticalAlign=middle;whiteSpace=wrap;rounded=0;" vertex="1" parent="8-loA80qppVBk1mBf-55-2">
          <mxGeometry y="130" width="200" height="40" as="geometry" />
        </mxCell>
        <mxCell id="8-loA80qppVBk1mBf-55-19" value="EcoreExport" style="text;strokeColor=none;align=center;fillColor=none;html=1;verticalAlign=middle;whiteSpace=wrap;rounded=0;" vertex="1" parent="8-loA80qppVBk1mBf-55-2">
          <mxGeometry y="170" width="200" height="40" as="geometry" />
        </mxCell>
        <mxCell id="8-loA80qppVBk1mBf-55-59" value="generate()" style="text;strokeColor=none;align=center;fillColor=none;html=1;verticalAlign=middle;whiteSpace=wrap;rounded=0;" vertex="1" parent="8-loA80qppVBk1mBf-55-2">
          <mxGeometry y="40" width="200" height="30" as="geometry" />
        </mxCell>
        <mxCell id="8-loA80qppVBk1mBf-55-3" value="" style="endArrow=none;dashed=1;html=1;rounded=0;" edge="1" parent="1">
          <mxGeometry width="50" height="50" relative="1" as="geometry">
            <mxPoint x="201" y="580" as="sourcePoint" />
            <mxPoint x="927" y="580" as="targetPoint" />
          </mxGeometry>
        </mxCell>
        <mxCell id="8-loA80qppVBk1mBf-55-4" value="" style="endArrow=none;dashed=1;html=1;rounded=0;" edge="1" parent="1">
          <mxGeometry width="50" height="50" relative="1" as="geometry">
            <mxPoint x="201" y="620" as="sourcePoint" />
            <mxPoint x="927" y="620" as="targetPoint" />
          </mxGeometry>
        </mxCell>
        <mxCell id="8-loA80qppVBk1mBf-55-5" value="" style="endArrow=none;dashed=1;html=1;rounded=0;" edge="1" parent="1">
          <mxGeometry width="50" height="50" relative="1" as="geometry">
            <mxPoint x="201" y="660" as="sourcePoint" />
            <mxPoint x="927" y="660" as="targetPoint" />
          </mxGeometry>
        </mxCell>
        <mxCell id="8-loA80qppVBk1mBf-55-6" value="" style="endArrow=none;dashed=1;html=1;rounded=0;" edge="1" parent="1">
          <mxGeometry width="50" height="50" relative="1" as="geometry">
            <mxPoint x="202" y="540" as="sourcePoint" />
            <mxPoint x="927" y="540" as="targetPoint" />
          </mxGeometry>
        </mxCell>
        <mxCell id="8-loA80qppVBk1mBf-55-7" value="" style="endArrow=none;dashed=1;html=1;rounded=0;" edge="1" parent="1">
          <mxGeometry width="50" height="50" relative="1" as="geometry">
            <mxPoint x="200" y="700" as="sourcePoint" />
            <mxPoint x="720" y="700" as="targetPoint" />
          </mxGeometry>
        </mxCell>
        <mxCell id="8-loA80qppVBk1mBf-55-8" value="Arval" style="text;strokeColor=none;align=center;fillColor=none;html=1;verticalAlign=middle;whiteSpace=wrap;rounded=0;" vertex="1" parent="1">
          <mxGeometry x="231" y="545" width="60" height="30" as="geometry" />
        </mxCell>
        <mxCell id="8-loA80qppVBk1mBf-55-9" value="Alphabet" style="text;strokeColor=none;align=center;fillColor=none;html=1;verticalAlign=middle;whiteSpace=wrap;rounded=0;" vertex="1" parent="1">
          <mxGeometry x="229" y="585" width="60" height="30" as="geometry" />
        </mxCell>
        <mxCell id="8-loA80qppVBk1mBf-55-10" value="Ecore" style="text;strokeColor=none;align=center;fillColor=none;html=1;verticalAlign=middle;whiteSpace=wrap;rounded=0;" vertex="1" parent="1">
          <mxGeometry x="229" y="625" width="60" height="30" as="geometry" />
        </mxCell>
        <mxCell id="8-loA80qppVBk1mBf-55-11" value="Eni" style="text;strokeColor=none;align=center;fillColor=none;html=1;verticalAlign=middle;whiteSpace=wrap;rounded=0;" vertex="1" parent="1">
          <mxGeometry x="229" y="666" width="60" height="30" as="geometry" />
        </mxCell>
        <mxCell id="8-loA80qppVBk1mBf-55-62" style="edgeStyle=orthogonalEdgeStyle;rounded=0;orthogonalLoop=1;jettySize=auto;html=1;exitX=0;exitY=0.5;exitDx=0;exitDy=0;entryX=1;entryY=0.25;entryDx=0;entryDy=0;" edge="1" parent="1" source="8-loA80qppVBk1mBf-55-22" target="8-loA80qppVBk1mBf-55-48">
          <mxGeometry relative="1" as="geometry" />
        </mxCell>
        <mxCell id="8-loA80qppVBk1mBf-55-63" style="edgeStyle=orthogonalEdgeStyle;rounded=0;orthogonalLoop=1;jettySize=auto;html=1;exitX=0;exitY=0.25;exitDx=0;exitDy=0;entryX=1;entryY=0.75;entryDx=0;entryDy=0;" edge="1" parent="1" source="8-loA80qppVBk1mBf-55-22" target="8-loA80qppVBk1mBf-55-56">
          <mxGeometry relative="1" as="geometry">
            <Array as="points">
              <mxPoint x="1057" y="340" />
              <mxPoint x="889" y="340" />
              <mxPoint x="889" y="258" />
            </Array>
          </mxGeometry>
        </mxCell>
        <mxCell id="8-loA80qppVBk1mBf-55-22" value="AbstractClientFactory" style="swimlane;whiteSpace=wrap;html=1;" vertex="1" parent="1">
          <mxGeometry x="1057" y="290" width="250" height="600" as="geometry" />
        </mxCell>
        <mxCell id="8-loA80qppVBk1mBf-55-24" value="static createInvoice(): Invoice" style="text;strokeColor=none;align=center;fillColor=none;html=1;verticalAlign=middle;whiteSpace=wrap;rounded=0;" vertex="1" parent="8-loA80qppVBk1mBf-55-22">
          <mxGeometry x="20" y="40" width="200" height="30" as="geometry" />
        </mxCell>
        <mxCell id="8-loA80qppVBk1mBf-55-26" value="static createExport(): Export" style="text;strokeColor=none;align=center;fillColor=none;html=1;verticalAlign=middle;whiteSpace=wrap;rounded=0;" vertex="1" parent="8-loA80qppVBk1mBf-55-22">
          <mxGeometry x="38" y="70" width="160" height="30" as="geometry" />
        </mxCell>
        <mxCell id="8-loA80qppVBk1mBf-55-27" value="ArvalFactory" style="swimlane;whiteSpace=wrap;html=1;" vertex="1" parent="8-loA80qppVBk1mBf-55-22">
          <mxGeometry x="30" y="140" width="190" height="100" as="geometry" />
        </mxCell>
        <mxCell id="8-loA80qppVBk1mBf-55-29" value="AlphabetFactory" style="swimlane;whiteSpace=wrap;html=1;" vertex="1" parent="8-loA80qppVBk1mBf-55-22">
          <mxGeometry x="30" y="250" width="190" height="100" as="geometry" />
        </mxCell>
        <mxCell id="8-loA80qppVBk1mBf-55-31" value="EcoreFactory" style="swimlane;whiteSpace=wrap;html=1;" vertex="1" parent="8-loA80qppVBk1mBf-55-22">
          <mxGeometry x="30" y="360" width="190" height="100" as="geometry" />
        </mxCell>
        <mxCell id="8-loA80qppVBk1mBf-55-33" style="edgeStyle=orthogonalEdgeStyle;rounded=0;orthogonalLoop=1;jettySize=auto;html=1;exitX=0.5;exitY=0;exitDx=0;exitDy=0;entryX=0.499;entryY=0.071;entryDx=0;entryDy=0;entryPerimeter=0;" edge="1" parent="8-loA80qppVBk1mBf-55-22" source="8-loA80qppVBk1mBf-55-29" target="8-loA80qppVBk1mBf-55-29">
          <mxGeometry relative="1" as="geometry" />
        </mxCell>
        <mxCell id="8-loA80qppVBk1mBf-55-34" value="EniFactory" style="swimlane;whiteSpace=wrap;html=1;" vertex="1" parent="8-loA80qppVBk1mBf-55-22">
          <mxGeometry x="30" y="470" width="190" height="110" as="geometry" />
        </mxCell>
        <mxCell id="8-loA80qppVBk1mBf-55-45" value="Control (Interface)" style="swimlane;whiteSpace=wrap;html=1;startSize=23;" vertex="1" parent="1">
          <mxGeometry x="721" y="450" width="200" height="250" as="geometry" />
        </mxCell>
        <mxCell id="8-loA80qppVBk1mBf-55-46" value="EniInvoice" style="text;strokeColor=none;align=center;fillColor=none;html=1;verticalAlign=middle;whiteSpace=wrap;rounded=0;" vertex="1" parent="8-loA80qppVBk1mBf-55-45">
          <mxGeometry y="210" width="200" height="40" as="geometry" />
        </mxCell>
        <mxCell id="8-loA80qppVBk1mBf-55-47" value="ArvalExport" style="text;strokeColor=none;align=center;fillColor=none;html=1;verticalAlign=middle;whiteSpace=wrap;rounded=0;" vertex="1" parent="8-loA80qppVBk1mBf-55-45">
          <mxGeometry y="90" width="200" height="40" as="geometry" />
        </mxCell>
        <mxCell id="8-loA80qppVBk1mBf-55-48" value="AlphabetExport" style="text;strokeColor=none;align=center;fillColor=none;html=1;verticalAlign=middle;whiteSpace=wrap;rounded=0;" vertex="1" parent="8-loA80qppVBk1mBf-55-45">
          <mxGeometry y="130" width="200" height="40" as="geometry" />
        </mxCell>
        <mxCell id="8-loA80qppVBk1mBf-55-49" value="EcoreExport" style="text;strokeColor=none;align=center;fillColor=none;html=1;verticalAlign=middle;whiteSpace=wrap;rounded=0;" vertex="1" parent="8-loA80qppVBk1mBf-55-45">
          <mxGeometry y="170" width="200" height="40" as="geometry" />
        </mxCell>
        <mxCell id="8-loA80qppVBk1mBf-55-60" value="start()&lt;br&gt;end()" style="text;strokeColor=none;align=center;fillColor=none;html=1;verticalAlign=middle;whiteSpace=wrap;rounded=0;" vertex="1" parent="8-loA80qppVBk1mBf-55-45">
          <mxGeometry y="40" width="200" height="30" as="geometry" />
        </mxCell>
        <mxCell id="8-loA80qppVBk1mBf-55-50" value="static createControl(): Control" style="text;strokeColor=none;align=center;fillColor=none;html=1;verticalAlign=middle;whiteSpace=wrap;rounded=0;" vertex="1" parent="1">
          <mxGeometry x="1095" y="390" width="160" height="30" as="geometry" />
        </mxCell>
        <mxCell id="8-loA80qppVBk1mBf-55-51" value="Controller" style="swimlane;whiteSpace=wrap;html=1;" vertex="1" parent="1">
          <mxGeometry x="511" y="180" width="210" height="180" as="geometry" />
        </mxCell>
        <mxCell id="8-loA80qppVBk1mBf-55-56" value="Create invoice, export or control depending on client" style="text;strokeColor=none;align=center;fillColor=none;html=1;verticalAlign=middle;whiteSpace=wrap;rounded=0;" vertex="1" parent="8-loA80qppVBk1mBf-55-51">
          <mxGeometry y="40" width="210" height="50" as="geometry" />
        </mxCell>
        <mxCell id="8-loA80qppVBk1mBf-55-57" value="Works with generic invoice, export or control" style="text;strokeColor=none;align=center;fillColor=none;html=1;verticalAlign=middle;whiteSpace=wrap;rounded=0;" vertex="1" parent="1">
          <mxGeometry x="511" y="285" width="210" height="50" as="geometry" />
        </mxCell>
        <mxCell id="8-loA80qppVBk1mBf-55-61" style="edgeStyle=orthogonalEdgeStyle;rounded=0;orthogonalLoop=1;jettySize=auto;html=1;exitX=1;exitY=0.5;exitDx=0;exitDy=0;entryX=0.5;entryY=0;entryDx=0;entryDy=0;" edge="1" parent="1" source="8-loA80qppVBk1mBf-55-56" target="8-loA80qppVBk1mBf-55-22">
          <mxGeometry relative="1" as="geometry" />
        </mxCell>
        <mxCell id="8-loA80qppVBk1mBf-55-107" value="_ (Interface)" style="swimlane;whiteSpace=wrap;html=1;" vertex="1" parent="1">
          <mxGeometry x="341" y="1760" width="200" height="250" as="geometry" />
        </mxCell>
        <mxCell id="8-loA80qppVBk1mBf-55-108" value="_ _" style="text;strokeColor=none;align=center;fillColor=none;html=1;verticalAlign=middle;whiteSpace=wrap;rounded=0;" vertex="1" parent="8-loA80qppVBk1mBf-55-107">
          <mxGeometry y="170" width="200" height="40" as="geometry" />
        </mxCell>
        <mxCell id="8-loA80qppVBk1mBf-55-109" value="_ _" style="text;strokeColor=none;align=center;fillColor=none;html=1;verticalAlign=middle;whiteSpace=wrap;rounded=0;" vertex="1" parent="8-loA80qppVBk1mBf-55-107">
          <mxGeometry y="210" width="200" height="40" as="geometry" />
        </mxCell>
        <mxCell id="8-loA80qppVBk1mBf-55-110" value="_ _" style="text;strokeColor=none;align=center;fillColor=none;html=1;verticalAlign=middle;whiteSpace=wrap;rounded=0;" vertex="1" parent="8-loA80qppVBk1mBf-55-107">
          <mxGeometry y="130" width="200" height="40" as="geometry" />
        </mxCell>
        <mxCell id="8-loA80qppVBk1mBf-55-111" value="_ _" style="text;strokeColor=none;align=center;fillColor=none;html=1;verticalAlign=middle;whiteSpace=wrap;rounded=0;" vertex="1" parent="8-loA80qppVBk1mBf-55-107">
          <mxGeometry y="90" width="200" height="40" as="geometry" />
        </mxCell>
        <mxCell id="8-loA80qppVBk1mBf-55-112" value="_()" style="text;strokeColor=none;align=center;fillColor=none;html=1;verticalAlign=middle;whiteSpace=wrap;rounded=0;" vertex="1" parent="8-loA80qppVBk1mBf-55-107">
          <mxGeometry y="40" width="200" height="30" as="geometry" />
        </mxCell>
        <mxCell id="8-loA80qppVBk1mBf-55-113" value="_ (Interface)" style="swimlane;whiteSpace=wrap;html=1;startSize=23;" vertex="1" parent="1">
          <mxGeometry x="541" y="1760" width="200" height="250" as="geometry" />
        </mxCell>
        <mxCell id="8-loA80qppVBk1mBf-55-114" value="_ _" style="text;strokeColor=none;align=center;fillColor=none;html=1;verticalAlign=middle;whiteSpace=wrap;rounded=0;" vertex="1" parent="8-loA80qppVBk1mBf-55-113">
          <mxGeometry y="210" width="200" height="40" as="geometry" />
        </mxCell>
        <mxCell id="8-loA80qppVBk1mBf-55-115" value="_ _" style="text;strokeColor=none;align=center;fillColor=none;html=1;verticalAlign=middle;whiteSpace=wrap;rounded=0;" vertex="1" parent="8-loA80qppVBk1mBf-55-113">
          <mxGeometry y="90" width="200" height="40" as="geometry" />
        </mxCell>
        <mxCell id="8-loA80qppVBk1mBf-55-116" value="_ _" style="text;strokeColor=none;align=center;fillColor=none;html=1;verticalAlign=middle;whiteSpace=wrap;rounded=0;" vertex="1" parent="8-loA80qppVBk1mBf-55-113">
          <mxGeometry y="130" width="200" height="40" as="geometry" />
        </mxCell>
        <mxCell id="8-loA80qppVBk1mBf-55-117" value="_ _" style="text;strokeColor=none;align=center;fillColor=none;html=1;verticalAlign=middle;whiteSpace=wrap;rounded=0;" vertex="1" parent="8-loA80qppVBk1mBf-55-113">
          <mxGeometry y="170" width="200" height="40" as="geometry" />
        </mxCell>
        <mxCell id="8-loA80qppVBk1mBf-55-118" value="_()" style="text;strokeColor=none;align=center;fillColor=none;html=1;verticalAlign=middle;whiteSpace=wrap;rounded=0;" vertex="1" parent="8-loA80qppVBk1mBf-55-113">
          <mxGeometry y="40" width="200" height="30" as="geometry" />
        </mxCell>
        <mxCell id="8-loA80qppVBk1mBf-55-119" value="" style="endArrow=none;dashed=1;html=1;rounded=0;" edge="1" parent="1">
          <mxGeometry width="50" height="50" relative="1" as="geometry">
            <mxPoint x="221" y="1890" as="sourcePoint" />
            <mxPoint x="947" y="1890" as="targetPoint" />
          </mxGeometry>
        </mxCell>
        <mxCell id="8-loA80qppVBk1mBf-55-120" value="" style="endArrow=none;dashed=1;html=1;rounded=0;" edge="1" parent="1">
          <mxGeometry width="50" height="50" relative="1" as="geometry">
            <mxPoint x="221" y="1930" as="sourcePoint" />
            <mxPoint x="947" y="1930" as="targetPoint" />
          </mxGeometry>
        </mxCell>
        <mxCell id="8-loA80qppVBk1mBf-55-121" value="" style="endArrow=none;dashed=1;html=1;rounded=0;" edge="1" parent="1">
          <mxGeometry width="50" height="50" relative="1" as="geometry">
            <mxPoint x="221" y="1970" as="sourcePoint" />
            <mxPoint x="947" y="1970" as="targetPoint" />
          </mxGeometry>
        </mxCell>
        <mxCell id="8-loA80qppVBk1mBf-55-122" value="" style="endArrow=none;dashed=1;html=1;rounded=0;" edge="1" parent="1">
          <mxGeometry width="50" height="50" relative="1" as="geometry">
            <mxPoint x="222" y="1850" as="sourcePoint" />
            <mxPoint x="947" y="1850" as="targetPoint" />
          </mxGeometry>
        </mxCell>
        <mxCell id="8-loA80qppVBk1mBf-55-123" value="" style="endArrow=none;dashed=1;html=1;rounded=0;" edge="1" parent="1">
          <mxGeometry width="50" height="50" relative="1" as="geometry">
            <mxPoint x="220" y="2010" as="sourcePoint" />
            <mxPoint x="740" y="2010" as="targetPoint" />
          </mxGeometry>
        </mxCell>
        <mxCell id="8-loA80qppVBk1mBf-55-124" value="_" style="text;strokeColor=none;align=center;fillColor=none;html=1;verticalAlign=middle;whiteSpace=wrap;rounded=0;" vertex="1" parent="1">
          <mxGeometry x="251" y="1855" width="60" height="30" as="geometry" />
        </mxCell>
        <mxCell id="8-loA80qppVBk1mBf-55-125" value="_" style="text;strokeColor=none;align=center;fillColor=none;html=1;verticalAlign=middle;whiteSpace=wrap;rounded=0;" vertex="1" parent="1">
          <mxGeometry x="249" y="1895" width="60" height="30" as="geometry" />
        </mxCell>
        <mxCell id="8-loA80qppVBk1mBf-55-126" value="_" style="text;strokeColor=none;align=center;fillColor=none;html=1;verticalAlign=middle;whiteSpace=wrap;rounded=0;" vertex="1" parent="1">
          <mxGeometry x="249" y="1935" width="60" height="30" as="geometry" />
        </mxCell>
        <mxCell id="8-loA80qppVBk1mBf-55-127" value="_" style="text;strokeColor=none;align=center;fillColor=none;html=1;verticalAlign=middle;whiteSpace=wrap;rounded=0;" vertex="1" parent="1">
          <mxGeometry x="249" y="1976" width="60" height="30" as="geometry" />
        </mxCell>
        <mxCell id="8-loA80qppVBk1mBf-55-128" style="edgeStyle=orthogonalEdgeStyle;rounded=0;orthogonalLoop=1;jettySize=auto;html=1;exitX=0;exitY=0.5;exitDx=0;exitDy=0;entryX=1;entryY=0.25;entryDx=0;entryDy=0;" edge="1" parent="1" source="8-loA80qppVBk1mBf-55-130" target="8-loA80qppVBk1mBf-55-141">
          <mxGeometry relative="1" as="geometry" />
        </mxCell>
        <mxCell id="8-loA80qppVBk1mBf-55-129" style="edgeStyle=orthogonalEdgeStyle;rounded=0;orthogonalLoop=1;jettySize=auto;html=1;exitX=0;exitY=0.25;exitDx=0;exitDy=0;entryX=1;entryY=0.75;entryDx=0;entryDy=0;" edge="1" parent="1" source="8-loA80qppVBk1mBf-55-130" target="8-loA80qppVBk1mBf-55-146">
          <mxGeometry relative="1" as="geometry">
            <Array as="points">
              <mxPoint x="1077" y="1650" />
              <mxPoint x="909" y="1650" />
              <mxPoint x="909" y="1568" />
            </Array>
          </mxGeometry>
        </mxCell>
        <mxCell id="8-loA80qppVBk1mBf-55-130" value="Abstract_Factory" style="swimlane;whiteSpace=wrap;html=1;" vertex="1" parent="1">
          <mxGeometry x="1077" y="1600" width="250" height="600" as="geometry" />
        </mxCell>
        <mxCell id="8-loA80qppVBk1mBf-55-131" value="static create_(): Invoice" style="text;strokeColor=none;align=center;fillColor=none;html=1;verticalAlign=middle;whiteSpace=wrap;rounded=0;" vertex="1" parent="8-loA80qppVBk1mBf-55-130">
          <mxGeometry x="20" y="40" width="200" height="30" as="geometry" />
        </mxCell>
        <mxCell id="8-loA80qppVBk1mBf-55-132" value="static create_(): Export" style="text;strokeColor=none;align=center;fillColor=none;html=1;verticalAlign=middle;whiteSpace=wrap;rounded=0;" vertex="1" parent="8-loA80qppVBk1mBf-55-130">
          <mxGeometry x="38" y="70" width="160" height="30" as="geometry" />
        </mxCell>
        <mxCell id="8-loA80qppVBk1mBf-55-133" value="_Factory" style="swimlane;whiteSpace=wrap;html=1;" vertex="1" parent="8-loA80qppVBk1mBf-55-130">
          <mxGeometry x="30" y="140" width="190" height="100" as="geometry" />
        </mxCell>
        <mxCell id="8-loA80qppVBk1mBf-55-134" value="_Factory" style="swimlane;whiteSpace=wrap;html=1;" vertex="1" parent="8-loA80qppVBk1mBf-55-130">
          <mxGeometry x="30" y="250" width="190" height="100" as="geometry" />
        </mxCell>
        <mxCell id="8-loA80qppVBk1mBf-55-135" value="_Factory" style="swimlane;whiteSpace=wrap;html=1;" vertex="1" parent="8-loA80qppVBk1mBf-55-130">
          <mxGeometry x="30" y="360" width="190" height="100" as="geometry" />
        </mxCell>
        <mxCell id="8-loA80qppVBk1mBf-55-136" style="edgeStyle=orthogonalEdgeStyle;rounded=0;orthogonalLoop=1;jettySize=auto;html=1;exitX=0.5;exitY=0;exitDx=0;exitDy=0;entryX=0.499;entryY=0.071;entryDx=0;entryDy=0;entryPerimeter=0;" edge="1" parent="8-loA80qppVBk1mBf-55-130" source="8-loA80qppVBk1mBf-55-134" target="8-loA80qppVBk1mBf-55-134">
          <mxGeometry relative="1" as="geometry" />
        </mxCell>
        <mxCell id="8-loA80qppVBk1mBf-55-137" value="_Factory" style="swimlane;whiteSpace=wrap;html=1;" vertex="1" parent="8-loA80qppVBk1mBf-55-130">
          <mxGeometry x="30" y="470" width="190" height="110" as="geometry" />
        </mxCell>
        <mxCell id="8-loA80qppVBk1mBf-55-138" value="_ (Interface)" style="swimlane;whiteSpace=wrap;html=1;startSize=23;" vertex="1" parent="1">
          <mxGeometry x="741" y="1760" width="200" height="250" as="geometry" />
        </mxCell>
        <mxCell id="8-loA80qppVBk1mBf-55-139" value="_ _" style="text;strokeColor=none;align=center;fillColor=none;html=1;verticalAlign=middle;whiteSpace=wrap;rounded=0;" vertex="1" parent="8-loA80qppVBk1mBf-55-138">
          <mxGeometry y="210" width="200" height="40" as="geometry" />
        </mxCell>
        <mxCell id="8-loA80qppVBk1mBf-55-140" value="_ _" style="text;strokeColor=none;align=center;fillColor=none;html=1;verticalAlign=middle;whiteSpace=wrap;rounded=0;" vertex="1" parent="8-loA80qppVBk1mBf-55-138">
          <mxGeometry y="90" width="200" height="40" as="geometry" />
        </mxCell>
        <mxCell id="8-loA80qppVBk1mBf-55-141" value="_ _" style="text;strokeColor=none;align=center;fillColor=none;html=1;verticalAlign=middle;whiteSpace=wrap;rounded=0;" vertex="1" parent="8-loA80qppVBk1mBf-55-138">
          <mxGeometry y="130" width="200" height="40" as="geometry" />
        </mxCell>
        <mxCell id="8-loA80qppVBk1mBf-55-142" value="_ _" style="text;strokeColor=none;align=center;fillColor=none;html=1;verticalAlign=middle;whiteSpace=wrap;rounded=0;" vertex="1" parent="8-loA80qppVBk1mBf-55-138">
          <mxGeometry y="170" width="200" height="40" as="geometry" />
        </mxCell>
        <mxCell id="8-loA80qppVBk1mBf-55-143" value="_()" style="text;strokeColor=none;align=center;fillColor=none;html=1;verticalAlign=middle;whiteSpace=wrap;rounded=0;" vertex="1" parent="8-loA80qppVBk1mBf-55-138">
          <mxGeometry y="40" width="200" height="30" as="geometry" />
        </mxCell>
        <mxCell id="8-loA80qppVBk1mBf-55-144" value="static create_(): Control" style="text;strokeColor=none;align=center;fillColor=none;html=1;verticalAlign=middle;whiteSpace=wrap;rounded=0;" vertex="1" parent="1">
          <mxGeometry x="1115" y="1700" width="160" height="30" as="geometry" />
        </mxCell>
        <mxCell id="8-loA80qppVBk1mBf-55-145" value="Controller or any Service" style="swimlane;whiteSpace=wrap;html=1;" vertex="1" parent="1">
          <mxGeometry x="531" y="1490" width="210" height="180" as="geometry" />
        </mxCell>
        <mxCell id="8-loA80qppVBk1mBf-55-146" value="Create _, _ or _ depending on _" style="text;strokeColor=none;align=center;fillColor=none;html=1;verticalAlign=middle;whiteSpace=wrap;rounded=0;" vertex="1" parent="8-loA80qppVBk1mBf-55-145">
          <mxGeometry y="40" width="210" height="50" as="geometry" />
        </mxCell>
        <mxCell id="8-loA80qppVBk1mBf-55-147" value="Works with generic _, _ or _" style="text;strokeColor=none;align=center;fillColor=none;html=1;verticalAlign=middle;whiteSpace=wrap;rounded=0;" vertex="1" parent="1">
          <mxGeometry x="531" y="1595" width="210" height="50" as="geometry" />
        </mxCell>
        <mxCell id="8-loA80qppVBk1mBf-55-148" style="edgeStyle=orthogonalEdgeStyle;rounded=0;orthogonalLoop=1;jettySize=auto;html=1;exitX=1;exitY=0.5;exitDx=0;exitDy=0;entryX=0.5;entryY=0;entryDx=0;entryDy=0;" edge="1" parent="1" source="8-loA80qppVBk1mBf-55-146" target="8-loA80qppVBk1mBf-55-130">
          <mxGeometry relative="1" as="geometry" />
        </mxCell>
        <mxCell id="8-loA80qppVBk1mBf-55-149" value="AbstractFactory" style="text;strokeColor=none;align=center;fillColor=none;html=1;verticalAlign=middle;whiteSpace=wrap;rounded=0;fontSize=33;" vertex="1" parent="1">
          <mxGeometry x="26" width="1590" height="80" as="geometry" />
        </mxCell>
        <mxCell id="8-loA80qppVBk1mBf-55-151" value="AbstractFactory" style="text;strokeColor=none;align=center;fillColor=none;html=1;verticalAlign=middle;whiteSpace=wrap;rounded=0;fontSize=33;" vertex="1" parent="1">
          <mxGeometry x="46" y="1190" width="1590" height="80" as="geometry" />
        </mxCell>
      </root>
    </mxGraphModel>
  </diagram>
</mxfile>
